<?xml version="1.0" encoding="UTF-8"?><svg id="Layer_2" xmlns="http://www.w3.org/2000/svg" viewBox="0 0 96 96"><defs><style>.cls-1{fill:none;}.cls-1,.cls-2{stroke-width:0px;}.cls-2{fill:#fff;}</style></defs><g id="Layer_1-2"><path class="cls-2" d="M48.4,27.8l-11.45,9.27c-1.9,1.54-2.27,4.31-.83,6.28,1.53,2.11,4.49,2.52,6.54.92l11.75-9.13c.83-.64,2.01-.5,2.66.33s.5,2.01-.33,2.66l-2.47,1.92,16.44,15.14v-22.33h-.08l-.46-.3-8.59-5.5c-1.81-1.16-3.93-1.77-6.08-1.77-2.58,0-5.09.89-7.1,2.51ZM51.1,42.51l-6.12,4.75c-3.73,2.91-9.13,2.15-11.92-1.68-2.63-3.61-1.96-8.65,1.5-11.45l9.84-7.96c-1.37-.58-2.85-.88-4.35-.88-2.22-.01-4.39.65-6.25,1.88l-8.52,5.68v26.5h3.34l10.81,9.86c2.32,2.12,5.9,1.95,8.02-.37.65-.72,1.09-1.56,1.31-2.44l2.01,1.85c2.31,2.12,5.9,1.96,8.02-.34.53-.58.92-1.25,1.17-1.95,2.29,1.54,5.42,1.22,7.35-.89,2.12-2.31,1.96-5.9-.34-8.02l-15.87-14.55h0ZM12.04,32.86c-1.04,0-1.89.85-1.89,1.89v24.6c0,2.09,1.69,3.79,3.79,3.79h3.79c2.09,0,3.79-1.69,3.79-3.79v-26.5h-9.46ZM15.83,55.57c1.05,0,1.89.85,1.89,1.89s-.85,1.89-1.89,1.89-1.89-.85-1.89-1.89.85-1.89,1.89-1.89ZM74.5,32.86v26.5c0,2.09,1.69,3.79,3.79,3.79h3.79c2.09,0,3.79-1.69,3.79-3.79v-24.6c0-1.04-.85-1.89-1.89-1.89h-9.46ZM78.28,57.46c0-1.05.85-1.89,1.89-1.89s1.89.85,1.89,1.89-.85,1.89-1.89,1.89-1.89-.85-1.89-1.89Z"/><rect class="cls-1" width="96" height="96"/></g></svg>