<?xml version="1.0" encoding="UTF-8"?><svg id="Layer_2" xmlns="http://www.w3.org/2000/svg" viewBox="0 0 96 96"><defs><style>.cls-1{fill:none;}.cls-1,.cls-2{stroke-width:0px;}.cls-2{fill:#fff;}</style></defs><g id="Layer_1-2"><rect class="cls-2" x="40.36" y="28.47" width="15.28" height="15.35"/><rect class="cls-2" x="40.36" y="28.47" width="15.28" height="15.35"/><rect class="cls-2" x="40.36" y="12.38" width="15.28" height="12.09"/><rect class="cls-2" x="40.36" y="12.38" width="15.28" height="12.09"/><rect class="cls-2" x="40.36" y="47.82" width="15.28" height="12.09"/><rect class="cls-2" x="40.36" y="47.82" width="15.28" height="12.09"/><rect class="cls-2" x="59.64" y="28.53" width="12.09" height="15.29"/><rect class="cls-2" x="59.64" y="28.53" width="12.09" height="15.29"/><rect class="cls-2" x="24.27" y="28.52" width="12.09" height="15.29"/><polygon class="cls-2" points="59.64 57.91 59.64 47.82 69.73 47.82 59.64 57.91"/><polygon class="cls-2" points="59.64 57.91 59.64 47.82 69.73 47.82 59.64 57.91"/><polygon class="cls-2" points="26.27 47.82 36.36 47.82 36.36 57.91 26.27 47.82"/><polygon class="cls-2" points="26.27 47.82 36.36 47.82 36.36 57.91 26.27 47.82"/><polygon class="cls-2" points="26.27 24.53 36.36 14.39 36.36 24.53 26.27 24.53"/><polygon class="cls-2" points="26.27 24.53 36.36 14.39 36.36 24.53 26.27 24.53"/><polygon class="cls-2" points="59.64 24.53 59.64 14.39 69.73 24.53 59.64 24.53"/><polygon class="cls-2" points="59.64 24.53 59.64 14.39 69.73 24.53 59.64 24.53"/><polygon class="cls-2" points="31.31 66.97 64.62 66.97 47.97 83.62 31.31 66.97"/><polygon class="cls-2" points="31.31 66.97 64.62 66.97 47.97 83.62 31.31 66.97"/><rect class="cls-1" width="96" height="96"/></g></svg>