<?xml version="1.0" encoding="UTF-8"?><svg id="Layer_2" xmlns="http://www.w3.org/2000/svg" viewBox="0 0 96 96"><defs><style>.cls-1{fill:none;}.cls-1,.cls-2{stroke-width:0px;}.cls-2{fill:#fff;}</style></defs><g id="Layer_1-2"><path class="cls-2" d="M48,8.82c-10.39,0-18.81,8.42-18.81,18.81,0,3.15.78,6.13,2.16,8.74h33.31c1.37-2.61,2.15-5.59,2.15-8.74,0-10.39-8.42-18.81-18.81-18.81Z"/><path class="cls-2" d="M66.81,27.62c0,3.15-.78,6.13-2.15,8.74H31.35c-1.38-2.61-2.16-5.59-2.16-8.74,0-10.39,8.42-18.81,18.81-18.81s18.81,8.42,18.81,18.81Z"/><path class="cls-2" d="M78.45,39.36c0,5.51-9.55,10.15-22.52,11.52v32.81c0,1.92-1.57,3.49-3.49,3.49h-8.88c-1.92,0-3.49-1.57-3.49-3.49v-32.81c-12.97-1.37-22.52-6.01-22.52-11.52h60.9Z"/><rect class="cls-1" width="96" height="96"/></g></svg>