<?xml version="1.0" encoding="UTF-8"?><svg id="Layer_2" xmlns="http://www.w3.org/2000/svg" viewBox="0 0 96 96"><defs><style>.cls-1{fill:none;}.cls-1,.cls-2{stroke-width:0px;}.cls-2{fill:#fff;}</style></defs><g id="Layer_1-2"><path class="cls-2" d="M41.77,87.35c-.83,0-1.5-.67-1.5-1.5v-17.31c0-.83.67-1.5,1.5-1.5s1.5.67,1.5,1.5v17.31c0,.83-.67,1.5-1.5,1.5Z"/><path class="cls-2" d="M54.24,84.68c-.83,0-1.5-.67-1.5-1.5v-17.36c0-.83.67-1.5,1.5-1.5s1.5.67,1.5,1.5v17.36c0,.83-.67,1.5-1.5,1.5Z"/><path class="cls-2" d="M29.3,88.49c-.83,0-1.5-.67-1.5-1.5v-15.15c0-.83.67-1.5,1.5-1.5s1.5.67,1.5,1.5v15.15c0,.83-.67,1.5-1.5,1.5Z"/><path class="cls-2" d="M66.7,86.17c-.83,0-1.5-.67-1.5-1.5v-16.68c0-.83.67-1.5,1.5-1.5s1.5.67,1.5,1.5v16.68c0,.83-.67,1.5-1.5,1.5Z"/><path class="cls-2" d="M69.34,7.51c-2.91,0-5.27,2.36-5.27,5.27s2.36,5.26,5.27,5.26v9.05H26.67v-9.05c2.91,0,5.27-2.35,5.27-5.26s-2.36-5.27-5.27-5.27-5.27,2.36-5.27,5.27v44.85c0,1.45,1.18,2.63,2.63,2.63h47.94c1.46,0,2.63-1.18,2.63-2.63V12.78c0-2.91-2.36-5.27-5.26-5.27ZM24.09,12.78c0-1.42,1.16-2.58,2.58-2.58s2.57,1.16,2.57,2.58-1.15,2.57-2.57,2.57-2.58-1.15-2.58-2.57ZM58.13,55c0,1.34-1.1,2.45-2.45,2.45h-14.21c-1.34,0-2.45-1.11-2.45-2.45v-22.43c0-1.35,1.11-2.46,2.45-2.46h14.21c1.35,0,2.45,1.11,2.45,2.46v22.43ZM69.34,15.35c-1.43,0-2.58-1.15-2.58-2.57s1.15-2.58,2.58-2.58,2.57,1.16,2.57,2.58-1.15,2.57-2.57,2.57Z"/><rect class="cls-2" x="42.02" y="33.11" width="13.11" height="21.34"/><rect class="cls-1" width="96" height="96"/></g></svg>