<?xml version="1.0" encoding="UTF-8"?><svg id="Layer_2" xmlns="http://www.w3.org/2000/svg" viewBox="0 0 96 96"><defs><style>.cls-1{fill:none;}.cls-1,.cls-2{stroke-width:0px;}.cls-2{fill:#fff;}</style></defs><g id="Layer_1-2"><path class="cls-2" d="M44.19,68.73v17.31c0,.82-.67,1.5-1.5,1.5s-1.5-.68-1.5-1.5v-17.31c0-.83.67-1.5,1.5-1.5s1.5.67,1.5,1.5Z"/><path class="cls-2" d="M56.66,66v17.37c0,.82-.67,1.5-1.5,1.5s-1.5-.68-1.5-1.5v-17.37c0-.82.67-1.5,1.5-1.5s1.5.68,1.5,1.5Z"/><path class="cls-2" d="M31.6,71.46c-.5.18-1.04.27-1.59.27-.41,0-.82-.05-1.21-.16-.05.14-.08.3-.08.46v15.15c0,.83.67,1.5,1.5,1.5s1.5-.67,1.5-1.5v-15.15c0-.2-.04-.4-.12-.57Z"/><path class="cls-2" d="M69.13,68.17v16.68c0,.83-.67,1.5-1.5,1.5s-1.5-.67-1.5-1.5v-16.68c0-.82.67-1.5,1.5-1.5s1.5.68,1.5,1.5Z"/><path class="cls-2" d="M44.19,68.73v17.31c0,.82-.67,1.5-1.5,1.5s-1.5-.68-1.5-1.5v-17.31c0-.83.67-1.5,1.5-1.5s1.5.67,1.5,1.5Z"/><path class="cls-2" d="M56.66,66v17.37c0,.82-.67,1.5-1.5,1.5s-1.5-.68-1.5-1.5v-17.37c0-.82.67-1.5,1.5-1.5s1.5.68,1.5,1.5Z"/><path class="cls-2" d="M31.72,72.03v15.15c0,.83-.67,1.5-1.5,1.5s-1.5-.67-1.5-1.5v-15.15c0-.16.03-.32.08-.46.39.11.8.16,1.21.16.55,0,1.09-.09,1.59-.27.08.17.12.37.12.57Z"/><path class="cls-2" d="M69.13,68.17v16.68c0,.83-.67,1.5-1.5,1.5s-1.5-.67-1.5-1.5v-16.68c0-.82.67-1.5,1.5-1.5s1.5.68,1.5,1.5Z"/><path class="cls-2" d="M70.26,7.69c-2.91,0-5.27,2.36-5.27,5.27s2.36,5.27,5.27,5.27v9.04H27.59v-9.04c2.91,0,5.27-2.36,5.27-5.27s-2.36-5.27-5.27-5.27-5.27,2.36-5.27,5.27v22.84c1.58.24,2.97,1.24,3.68,2.7l3.07,6.31,6.84,1.01c1.84.27,3.34,1.54,3.92,3.3.05.14.09.28.12.43v-16.8c0-1.35,1.1-2.45,2.45-2.45h14.2c1.35,0,2.45,1.1,2.45,2.45v22.43c0,1.35-1.1,2.45-2.45,2.45h-14.2c-1.35,0-2.45-1.1-2.45-2.45v-3.43c-.21.87-.66,1.69-1.32,2.36l-5,4.93.24,1.41h39.02c1.46,0,2.64-1.18,2.64-2.64V12.96c0-2.91-2.36-5.27-5.27-5.27ZM25.02,12.96c0-1.42,1.15-2.58,2.57-2.58s2.58,1.16,2.58,2.58-1.16,2.57-2.58,2.57-2.57-1.15-2.57-2.57ZM70.26,15.53c-1.42,0-2.57-1.15-2.57-2.57s1.15-2.58,2.57-2.58,2.58,1.16,2.58,2.58-1.16,2.57-2.58,2.57Z"/><path class="cls-2" d="M36.52,51.97l-6.1,6.04.41,2.44.51,3,.52,3.09c.12.7-.17,1.41-.75,1.83-.12.08-.24.15-.37.2h-.01c-.4.18-.88.2-1.3.05h-.01c-.1-.02-.19-.06-.29-.11l-7.51-4.01-7.52,4.01c-.63.33-1.4.28-1.98-.14-.58-.41-.87-1.13-.75-1.83l1.44-8.53-6.1-6.04c-.51-.5-.68-1.24-.46-1.91.21-.68.8-1.17,1.5-1.27l8.41-1.24,3.16-6.51.6-1.24c.32-.64.97-1.05,1.69-1.05.25,0,.49.05.71.14.42.17.78.49.98.91l3.76,7.75,8.41,1.24c.71.1,1.29.59,1.51,1.27.22.67.04,1.41-.46,1.91Z"/><rect class="cls-2" x="42.95" y="33.3" width="13.1" height="21.33"/><rect class="cls-1" width="96" height="96"/></g></svg>