<?xml version="1.0" encoding="UTF-8"?><svg id="Layer_2" xmlns="http://www.w3.org/2000/svg" viewBox="0 0 96 96"><defs><style>.cls-1{fill:none;}.cls-1,.cls-2{stroke-width:0px;}.cls-2{fill:#fff;}</style></defs><g id="Layer_1-2"><path class="cls-2" d="M78.98,16.28l-8.85,8.85c-1.17.7-2.16,1.69-2.86,2.86l-15.55,15.55h-17.02v-3.61c3.08-1.2,5.27-4.2,5.27-7.71,0-4.55-3.71-8.26-8.27-8.26s-8.27,3.71-8.27,8.26v39.61l-7.07,7.07V16.28h62.62Z"/><path class="cls-2" d="M74.37,26.96c-.87,0-1.7.21-2.43.6-.96.49-1.75,1.28-2.24,2.24-.39.73-.6,1.56-.6,2.43,0,2.91,2.36,5.27,5.27,5.27v9.04H31.7v-9.04c2.91,0,5.27-2.36,5.27-5.27s-2.36-5.27-5.27-5.27-5.27,2.36-5.27,5.27v44.85c0,1.46,1.18,2.64,2.64,2.64h47.94c1.45,0,2.63-1.18,2.63-2.64v-44.85c0-2.91-2.36-5.27-5.27-5.27ZM29.13,32.23c0-1.42,1.15-2.58,2.57-2.58s2.58,1.16,2.58,2.58-1.15,2.57-2.58,2.57-2.57-1.15-2.57-2.57ZM63.17,74.45c0,1.35-1.11,2.45-2.46,2.45h-14.2c-1.35,0-2.45-1.1-2.45-2.45v-22.43c0-.38.08-.74.24-1.06.24-.5.65-.91,1.15-1.15.32-.16.68-.24,1.06-.24h14.2c1.35,0,2.46,1.1,2.46,2.45v22.43ZM74.37,34.8c-1.42,0-2.57-1.15-2.57-2.57s1.15-2.58,2.57-2.58,2.58,1.16,2.58,2.58-1.16,2.57-2.58,2.57Z"/><rect class="cls-2" x="47.06" y="52.57" width="13.11" height="21.32"/><rect class="cls-1" width="96" height="96"/></g></svg>