<?xml version="1.0" encoding="UTF-8"?><svg id="Layer_2" xmlns="http://www.w3.org/2000/svg" viewBox="0 0 96 96"><defs><style>.cls-1{fill:none;}.cls-1,.cls-2{stroke-width:0px;}.cls-2{fill:#fff;}</style></defs><g id="Layer_1-2"><rect class="cls-2" x="40.32" y="52.18" width="15.28" height="15.35"/><rect class="cls-2" x="40.32" y="52.18" width="15.28" height="15.35"/><rect class="cls-2" x="40.32" y="71.53" width="15.28" height="12.09"/><rect class="cls-2" x="40.32" y="71.53" width="15.28" height="12.09"/><rect class="cls-2" x="40.32" y="36.09" width="15.28" height="12.09"/><rect class="cls-2" x="40.32" y="36.09" width="15.28" height="12.09"/><rect class="cls-2" x="24.23" y="52.18" width="12.09" height="15.29"/><rect class="cls-2" x="24.23" y="52.18" width="12.09" height="15.29"/><rect class="cls-2" x="59.6" y="52.17" width="12.09" height="15.3"/><polygon class="cls-2" points="36.32 38.09 36.32 48.18 26.23 48.18 36.32 38.09"/><polygon class="cls-2" points="36.32 38.09 36.32 48.18 26.23 48.18 36.32 38.09"/><polygon class="cls-2" points="69.69 48.18 59.6 48.18 59.6 38.09 69.69 48.18"/><polygon class="cls-2" points="69.69 48.18 59.6 48.18 59.6 38.09 69.69 48.18"/><polygon class="cls-2" points="69.69 71.47 59.6 81.61 59.6 71.47 69.69 71.47"/><polygon class="cls-2" points="69.69 71.47 59.6 81.61 59.6 71.47 69.69 71.47"/><polygon class="cls-2" points="36.32 71.47 36.32 81.61 26.23 71.47 36.32 71.47"/><polygon class="cls-2" points="36.32 71.47 36.32 81.61 26.23 71.47 36.32 71.47"/><polygon class="cls-2" points="64.65 29.03 31.34 29.03 47.99 12.38 64.65 29.03"/><polygon class="cls-2" points="64.65 29.03 31.34 29.03 47.99 12.38 64.65 29.03"/><rect class="cls-1" width="96" height="96"/></g></svg>