<?xml version="1.0" encoding="UTF-8"?><svg id="Layer_2" xmlns="http://www.w3.org/2000/svg" viewBox="0 0 96 96"><defs><style>.cls-1{fill:none;}.cls-1,.cls-2{stroke-width:0px;}.cls-2{fill:#fff;}</style></defs><g id="Layer_1-2"><path class="cls-2" d="M22.41,26.06c-4.03,0-7.31,3.28-7.31,7.31v7.31c0,1.01.85,1.79,1.79,2.12,2.15.74,3.69,2.79,3.69,5.19s-1.54,4.44-3.69,5.19c-.95.33-1.79,1.12-1.79,2.12v7.31c0,4.03,3.28,7.31,7.31,7.31h51.18c4.03,0,7.31-3.28,7.31-7.31v-7.31c0-1.01-.85-1.79-1.79-2.12-2.15-.74-3.69-2.79-3.69-5.19s1.54-4.44,3.69-5.19c.95-.33,1.79-1.12,1.79-2.12v-7.31c0-4.03-3.28-7.31-7.31-7.31H22.41ZM29.72,38.86v18.28c0,1.01.82,1.83,1.83,1.83h32.9c1.01,0,1.83-.82,1.83-1.83v-18.28c0-1.01-.82-1.83-1.83-1.83H31.55c-1.01,0-1.83.82-1.83,1.83ZM26.06,37.03c0-2.02,1.63-3.66,3.66-3.66h36.56c2.02,0,3.66,1.63,3.66,3.66v21.94c0,2.02-1.63,3.66-3.66,3.66H29.72c-2.02,0-3.66-1.63-3.66-3.66v-21.94Z"/><rect class="cls-1" width="96" height="96"/></g></svg>